<?xml version="1.0" encoding="UTF-8" standalone="no"?>
<!DOCTYPE svg PUBLIC "-//W3C//DTD SVG 1.1//EN"
 "http://www.w3.org/Graphics/SVG/1.1/DTD/svg11.dtd">
<!-- Generated by graphviz version 12.0.0 (0)
 -->
<!-- Pages: 1 -->
<svg width="526pt" height="127pt"
 viewBox="0.00 0.00 525.50 127.00" xmlns="http://www.w3.org/2000/svg" xmlns:xlink="http://www.w3.org/1999/xlink">
<g id="graph0" class="graph" transform="scale(1 1) rotate(0) translate(4 123)">
<polygon fill="white" stroke="none" points="-4,4 -4,-123 521.5,-123 521.5,4 -4,4"/>
<!-- 2577661417552 -->
<g id="node1" class="node">
<title>2577661417552</title>
<polygon fill="none" stroke="black" points="213.88,-82.5 213.88,-118.5 303.62,-118.5 303.62,-82.5 213.88,-82.5"/>
<text text-anchor="middle" x="223.75" y="-95.7" font-family="Times New Roman,serif" font-size="14.00"> </text>
<polyline fill="none" stroke="black" points="233.62,-83 233.62,-118.5"/>
<text text-anchor="middle" x="268.62" y="-95.7" font-family="Times New Roman,serif" font-size="14.00">data: 10.0</text>
</g>
<!-- 2577661414864+ -->
<g id="node7" class="node">
<title>2577661414864+</title>
<ellipse fill="none" stroke="black" cx="367" cy="-72.5" rx="27" ry="18"/>
<text text-anchor="middle" x="367" y="-67.45" font-family="Times New Roman,serif" font-size="14.00">+</text>
</g>
<!-- 2577661417552&#45;&gt;2577661414864+ -->
<g id="edge4" class="edge">
<title>2577661417552&#45;&gt;2577661414864+</title>
<path fill="none" stroke="black" d="M303.89,-88.87C312.67,-86.55 321.78,-84.15 330.24,-81.92"/>
<polygon fill="black" stroke="black" points="331.03,-85.33 339.81,-79.4 329.25,-78.57 331.03,-85.33"/>
</g>
<!-- 2577661418224 -->
<g id="node2" class="node">
<title>2577661418224</title>
<polygon fill="none" stroke="black" points="213.5,-27.5 213.5,-63.5 304,-63.5 304,-27.5 213.5,-27.5"/>
<text text-anchor="middle" x="224.88" y="-40.7" font-family="Times New Roman,serif" font-size="14.00">*</text>
<polyline fill="none" stroke="black" points="236.25,-28 236.25,-63.5"/>
<text text-anchor="middle" x="270.12" y="-40.7" font-family="Times New Roman,serif" font-size="14.00">data: &#45;6.0</text>
</g>
<!-- 2577661418224&#45;&gt;2577661414864+ -->
<g id="edge6" class="edge">
<title>2577661418224&#45;&gt;2577661414864+</title>
<path fill="none" stroke="black" d="M304.19,-56.79C312.95,-59.02 322.03,-61.33 330.45,-63.47"/>
<polygon fill="black" stroke="black" points="329.4,-66.81 339.96,-65.88 331.13,-60.03 329.4,-66.81"/>
</g>
<!-- 2577661418224* -->
<g id="node3" class="node">
<title>2577661418224*</title>
<ellipse fill="none" stroke="black" cx="150.5" cy="-45.5" rx="27" ry="18"/>
<text text-anchor="middle" x="150.5" y="-40.45" font-family="Times New Roman,serif" font-size="14.00">*</text>
</g>
<!-- 2577661418224*&#45;&gt;2577661418224 -->
<g id="edge1" class="edge">
<title>2577661418224*&#45;&gt;2577661418224</title>
<path fill="none" stroke="black" d="M177.76,-45.5C185.12,-45.5 193.4,-45.5 201.78,-45.5"/>
<polygon fill="black" stroke="black" points="201.67,-49 211.67,-45.5 201.67,-42 201.67,-49"/>
</g>
<!-- 2577669192496 -->
<g id="node4" class="node">
<title>2577669192496</title>
<polygon fill="none" stroke="black" points="0,-55.5 0,-91.5 87.5,-91.5 87.5,-55.5 0,-55.5"/>
<text text-anchor="middle" x="9.88" y="-68.7" font-family="Times New Roman,serif" font-size="14.00"> </text>
<polyline fill="none" stroke="black" points="19.75,-56 19.75,-91.5"/>
<text text-anchor="middle" x="53.62" y="-68.7" font-family="Times New Roman,serif" font-size="14.00">data: &#45;3.0</text>
</g>
<!-- 2577669192496&#45;&gt;2577661418224* -->
<g id="edge5" class="edge">
<title>2577669192496&#45;&gt;2577661418224*</title>
<path fill="none" stroke="black" d="M87.96,-61.95C96.64,-59.63 105.66,-57.22 114.04,-54.98"/>
<polygon fill="black" stroke="black" points="114.75,-58.41 123.51,-52.45 112.95,-51.65 114.75,-58.41"/>
</g>
<!-- 2577670199088 -->
<g id="node5" class="node">
<title>2577670199088</title>
<polygon fill="none" stroke="black" points="2.25,-0.5 2.25,-36.5 85.25,-36.5 85.25,-0.5 2.25,-0.5"/>
<text text-anchor="middle" x="12.12" y="-13.7" font-family="Times New Roman,serif" font-size="14.00"> </text>
<polyline fill="none" stroke="black" points="22,-1 22,-36.5"/>
<text text-anchor="middle" x="53.62" y="-13.7" font-family="Times New Roman,serif" font-size="14.00">data: 2.0</text>
</g>
<!-- 2577670199088&#45;&gt;2577661418224* -->
<g id="edge3" class="edge">
<title>2577670199088&#45;&gt;2577661418224*</title>
<path fill="none" stroke="black" d="M85.55,-29.02C94.92,-31.43 104.81,-33.98 113.94,-36.33"/>
<polygon fill="black" stroke="black" points="112.98,-39.7 123.53,-38.81 114.72,-32.92 112.98,-39.7"/>
</g>
<!-- 2577661414864 -->
<g id="node6" class="node">
<title>2577661414864</title>
<polygon fill="none" stroke="black" points="430,-54.5 430,-90.5 517.5,-90.5 517.5,-54.5 430,-54.5"/>
<text text-anchor="middle" x="442.12" y="-67.7" font-family="Times New Roman,serif" font-size="14.00">+</text>
<polyline fill="none" stroke="black" points="454.25,-55 454.25,-90.5"/>
<text text-anchor="middle" x="485.88" y="-67.7" font-family="Times New Roman,serif" font-size="14.00">data: 4.0</text>
</g>
<!-- 2577661414864+&#45;&gt;2577661414864 -->
<g id="edge2" class="edge">
<title>2577661414864+&#45;&gt;2577661414864</title>
<path fill="none" stroke="black" d="M394.43,-72.5C401.77,-72.5 410.01,-72.5 418.32,-72.5"/>
<polygon fill="black" stroke="black" points="418.1,-76 428.1,-72.5 418.1,-69 418.1,-76"/>
</g>
</g>
</svg>
